<svg width="20" height="20" viewBox="0 0 20 20" fill="none" xmlns="http://www.w3.org/2000/svg">
<rect width="20" height="20" rx="10" fill="#FFFF00"/>
<path fill-rule="evenodd" clip-rule="evenodd" d="M5.28082 4.21997C5.13865 4.08749 4.9506 4.01537 4.7563 4.01879C4.562 4.02222 4.37661 4.10093 4.2392 4.23835C4.10179 4.37576 4.02308 4.56114 4.01965 4.75545C4.01622 4.94975 4.08834 5.13779 4.22082 5.27997L14.7208 15.78C14.7895 15.8537 14.8723 15.9128 14.9643 15.9537C15.0563 15.9947 15.1556 16.0168 15.2563 16.0186C15.357 16.0203 15.457 16.0018 15.5504 15.9641C15.6438 15.9264 15.7286 15.8702 15.7999 15.799C15.8711 15.7278 15.9272 15.643 15.9649 15.5496C16.0027 15.4562 16.0212 15.3561 16.0194 15.2554C16.0176 15.1547 15.9956 15.0554 15.9546 14.9634C15.9136 14.8714 15.8545 14.7886 15.7808 14.72L14.4588 13.397C15.4504 12.578 16.1976 11.5021 16.6188 10.287C16.6821 10.1033 16.6821 9.90367 16.6188 9.71997C16.2926 8.77291 15.7669 7.90687 15.0774 7.18029C14.3879 6.45371 13.5505 5.88351 12.6218 5.50816C11.6931 5.13282 10.6947 4.96107 9.694 5.00451C8.69327 5.04795 7.7135 5.30556 6.82082 5.75997L5.28082 4.21997ZM8.47682 7.41497L9.61182 8.55097C9.8663 8.48298 10.1342 8.48311 10.3886 8.55134C10.643 8.61957 10.875 8.75351 11.0613 8.93971C11.2476 9.12591 11.3817 9.35783 11.45 9.6122C11.5184 9.86658 11.5187 10.1345 11.4508 10.389L12.5868 11.524C12.9255 10.9509 13.0639 10.2816 12.9804 9.62121C12.8968 8.96086 12.5961 8.34704 12.1254 7.87638C11.6548 7.40572 11.0409 7.10495 10.3806 7.02142C9.72023 6.93789 9.05086 7.07633 8.47782 7.41497H8.47682Z" fill="black"/>
<path d="M9.81135 12.994L11.6273 14.81C9.93548 15.2142 8.15375 14.9742 6.6291 14.1368C5.10445 13.2995 3.94601 11.9246 3.37935 10.28C3.31626 10.0967 3.31626 9.89744 3.37935 9.71405C3.63394 8.97702 4.01014 8.28783 4.49235 7.67505L7.00535 10.188C7.05116 10.9172 7.36149 11.6046 7.87812 12.1213C8.39475 12.6379 9.08216 12.9482 9.81135 12.994Z" fill="black"/>
</svg>
