<svg width="20" height="20" viewBox="0 0 20 20" fill="none" xmlns="http://www.w3.org/2000/svg">
<rect width="20" height="20" rx="10" fill="white"/>
<path d="M10 11.5C10.3978 11.5 10.7794 11.342 11.0607 11.0607C11.342 10.7794 11.5 10.3978 11.5 10C11.5 9.60218 11.342 9.22064 11.0607 8.93934C10.7794 8.65804 10.3978 8.5 10 8.5C9.60218 8.5 9.22064 8.65804 8.93934 8.93934C8.65804 9.22064 8.5 9.60218 8.5 10C8.5 10.3978 8.65804 10.7794 8.93934 11.0607C9.22064 11.342 9.60218 11.5 10 11.5Z" fill="black"/>
<path fill-rule="evenodd" clip-rule="evenodd" d="M3.37935 10.28C3.31626 10.0966 3.31626 9.89739 3.37935 9.714C3.85572 8.33737 4.74953 7.14356 5.93631 6.29881C7.12309 5.45407 8.54376 5.00044 10.0005 5.0011C11.4572 5.00176 12.8775 5.45667 14.0635 6.3025C15.2495 7.14832 16.1422 8.34294 16.6173 9.72C16.6804 9.90339 16.6804 10.1026 16.6173 10.286C16.1412 11.663 15.2474 12.8572 14.0605 13.7022C12.8736 14.5472 11.4527 15.001 9.99571 15.0003C8.53872 14.9997 7.11822 14.5446 5.93209 13.6985C4.74596 12.8524 3.85326 11.6574 3.37835 10.28H3.37935ZM12.9993 10C12.9993 10.7956 12.6833 11.5587 12.1207 12.1213C11.5581 12.6839 10.795 13 9.99935 13C9.2037 13 8.44064 12.6839 7.87803 12.1213C7.31542 11.5587 6.99935 10.7956 6.99935 10C6.99935 9.20435 7.31542 8.44129 7.87803 7.87868C8.44064 7.31607 9.2037 7 9.99935 7C10.795 7 11.5581 7.31607 12.1207 7.87868C12.6833 8.44129 12.9993 9.20435 12.9993 10Z" fill="black"/>
</svg>
